<?xml version="1.0" encoding="UTF-8" standalone="no"?>
<!DOCTYPE svg PUBLIC "-//W3C//DTD SVG 1.1//EN" "http://www.w3.org/Graphics/SVG/1.1/DTD/svg11.dtd">
<svg version="1.1" xmlns="http://www.w3.org/2000/svg" xmlns:xlink="http://www.w3.org/1999/xlink" preserveAspectRatio="xMidYMid meet" viewBox="0 0 1152 1152" width="500" height="500"><defs><path d="M904.04 114.51C914.05 114.51 922.16 122.62 922.16 132.63C922.16 307.04 922.16 812.13 922.16 986.53C922.16 996.54 914.05 1004.65 904.04 1004.65C774.61 1004.65 404.43 1004.65 275 1004.65C264.99 1004.65 256.88 996.54 256.88 986.53C256.88 812.13 256.88 307.04 256.88 132.63C256.88 122.62 264.99 114.51 275 114.51C404.43 114.51 774.61 114.51 904.04 114.51Z" id="ceOE6u925"></path><path d="M319.7 242.83L392.43 242.83L392.43 315.55L319.7 315.55L319.7 242.83Z" id="f5zKzluPR5"></path><path d="M319.7 532.04L392.43 532.04L392.43 604.77L319.7 604.77L319.7 532.04Z" id="b6iGRpra7G"></path><path d="M384.43 256.49L384.43 256.49L356.97 283.37L306.08 233.58L333.55 206.7L356.96 229.61L426.78 161.28L454.25 188.16L384.43 256.49Z" id="j7cpfuYdfn"></path><path d="M319.7 830.34L392.43 830.34L392.43 903.07L319.7 903.07L319.7 830.34Z" id="aMsTzcjvs"></path><path d="M825.01 269.34C830.45 269.34 834.85 273.75 834.85 279.19C834.85 281.16 834.85 277.22 834.85 279.19C834.85 284.63 830.45 289.04 825.01 289.04C753.64 289.04 549.4 289.04 478.04 289.04C472.6 289.04 468.19 284.63 468.19 279.19C468.19 277.22 468.19 281.16 468.19 279.19C468.19 273.75 472.6 269.34 478.04 269.34C549.4 269.34 753.64 269.34 825.01 269.34Z" id="a1zhGwtnQ"></path><path d="M825.01 559.58C830.45 559.58 834.85 563.99 834.85 569.43C834.85 571.4 834.85 567.46 834.85 569.43C834.85 574.87 830.45 579.28 825.01 579.28C753.64 579.28 549.4 579.28 478.04 579.28C472.6 579.28 468.19 574.87 468.19 569.43C468.19 567.46 468.19 571.4 468.19 569.43C468.19 563.99 472.6 559.58 478.04 559.58C549.4 559.58 753.64 559.58 825.01 559.58Z" id="a1hHJzkvye"></path><path d="M825.01 856.86C830.45 856.86 834.85 861.27 834.85 866.71C834.85 868.68 834.85 864.74 834.85 866.71C834.85 872.14 830.45 876.55 825.01 876.55C753.64 876.55 549.4 876.55 478.04 876.55C472.6 876.55 468.19 872.14 468.19 866.71C468.19 864.74 468.19 868.68 468.19 866.71C468.19 861.27 472.6 856.86 478.04 856.86C549.4 856.86 753.64 856.86 825.01 856.86Z" id="b7aRI8wAW6"></path></defs><g><g><g><g><filter id="shadow5409369" x="176.88" y="34.51" width="830.28" height="1065.14" filterUnits="userSpaceOnUse" primitiveUnits="userSpaceOnUse"><feFlood></feFlood><feComposite in2="SourceAlpha" operator="in"></feComposite><feGaussianBlur stdDeviation="5"></feGaussianBlur><feOffset dx="5" dy="15" result="afterOffset"></feOffset><feFlood flood-color="#000000" flood-opacity="0.27"></feFlood><feComposite in2="afterOffset" operator="in"></feComposite><feMorphology operator="dilate" radius="10"></feMorphology><feComposite in2="SourceAlpha" operator="out"></feComposite></filter><path d="M904.04 114.51C914.05 114.51 922.16 122.62 922.16 132.63C922.16 307.04 922.16 812.13 922.16 986.53C922.16 996.54 914.05 1004.65 904.04 1004.65C774.61 1004.65 404.43 1004.65 275 1004.65C264.99 1004.65 256.88 996.54 256.88 986.53C256.88 812.13 256.88 307.04 256.88 132.63C256.88 122.62 264.99 114.51 275 114.51C404.43 114.51 774.61 114.51 904.04 114.51Z" id="imvoN9tGa" fill="white" fill-opacity="1" filter="url(#shadow5409369)"></path></g><use xlink:href="#ceOE6u925" opacity="1" fill="#d0d0d0" fill-opacity="1"></use><g><use xlink:href="#ceOE6u925" opacity="1" fill-opacity="0" stroke="#ffffff" stroke-width="30" stroke-opacity="0.97"></use></g></g><g><use xlink:href="#f5zKzluPR5" opacity="1" fill="#ff6058" fill-opacity="1"></use></g><g><use xlink:href="#b6iGRpra7G" opacity="1" fill="#ff6058" fill-opacity="1"></use></g><g><use xlink:href="#j7cpfuYdfn" opacity="1" fill="#ffffff" fill-opacity="1"></use></g><g><use xlink:href="#aMsTzcjvs" opacity="1" fill="#ff6058" fill-opacity="1"></use></g><g><use xlink:href="#a1zhGwtnQ" opacity="1" fill="#808080" fill-opacity="1"></use></g><g><use xlink:href="#a1hHJzkvye" opacity="1" fill="#808080" fill-opacity="1"></use></g><g><use xlink:href="#b7aRI8wAW6" opacity="1" fill="#808080" fill-opacity="1"></use></g></g></g></svg>